<svg xmlns="http://www.w3.org/2000/svg" width="200" height="39" fill="#fff" xmlns:v="https://vecta.io/nano"><rect width="3.007" height="1.805" x="11.424" y="14.114" rx=".903"/><rect width="3.007" height="1.805" y="26.596" rx=".903"/><path d="M7.967 31.283c-.239.002-.468-.093-.637-.263-.262-.256-.343-.646-.202-.984s.473-.558.84-.553h5.893l.316-1.206H4.66a.9.9 0 0 1 0-1.8h9.992l.24-.906h7.823c.473-.034.84-.428.84-.902s-.367-.868-.84-.903h-7.311l5.2-4.51h9.614a.9.9 0 0 0 0-1.8H22.68l1.915-1.657h-8.513c-.473-.034-.84-.428-.84-.902s.367-.868.84-.903h10.586l1.556-1.35h8.618c.473-.035.84-.428.84-.903s-.367-.868-.84-.902h-6.535l2.944-2.557H19.477l.762-2.873h7.574c.473-.034.84-.428.84-.902s-.367-.868-.84-.903h-7.095l.478-1.805h-9.015c-.24 0-.469-.094-.637-.263a.9.9 0 0 1-.19-.978.9.9 0 0 1 .827-.554h11.424c.046-.005.092-.005.139 0h27.353l-1.973 7.46-17.954 15.57H45.4l-2.203 8.259M64.968 8.78H72.7l-4.596 20.756h-7.737l.517-2.193c-1.805 1.977-3.481 2.71-5.63 2.71-4.64 0-7.733-3.055-7.733-8.618 0-5.746 3.567-13.153 10.96-13.153 2.36 0 4.682.862 6.013 2.71l.474-2.212zm-6.019 14.44a4.33 4.33 0 0 0 3.136-1.436l1.207-5.267c-.892-.941-2.14-1.463-3.438-1.436-2.451 0-4.342 2.02-4.342 4.687a3.35 3.35 0 0 0 3.437 3.453zm31.63-14.44h7.732l-4.596 20.756h-7.738l.518-2.193c-1.806 1.977-3.481 2.71-5.631 2.71-4.64 0-7.733-3.055-7.733-8.618 0-5.746 3.567-13.153 10.955-13.153 2.365 0 4.688.862 6.019 2.71l.474-2.212zM84.56 23.22a4.34 4.34 0 0 0 3.136-1.436l1.207-5.267c-.893-.941-2.14-1.463-3.438-1.436-2.451 0-4.343 2.02-4.343 4.687a3.35 3.35 0 0 0 3.438 3.453zm24.28-.517l-2.064 2.15-1.029 4.683H98.01L104.325.875h7.737l-3.308 14.843 6.1-6.962h9.576l-9.241 9.452 5.113 11.304h-9.269zm19.075 14.737h-7.732l6.358-28.66h7.733l-.518 2.193c1.806-1.977 3.481-2.71 5.631-2.71 4.64 0 7.733 3.05 7.733 8.618 0 5.746-3.567 13.153-10.955 13.153-2.365 0-4.688-.862-6.019-2.71l-2.23 10.117zm7.795-22.345c-1.198.027-2.333.547-3.136 1.437l-1.207 5.267c.892.943 2.14 1.464 3.438 1.436 2.451 0 4.343-2.02 4.343-4.688.028-.92-.325-1.813-.975-2.466s-1.542-1.01-2.463-.986zm29.977-6.315h7.738l-4.601 20.756h-7.738l.517-2.193c-1.805 1.977-3.48 2.71-5.63 2.71-4.64 0-7.738-3.055-7.738-8.618 0-5.746 3.567-13.153 10.96-13.153 2.365 0 4.683.862 6.018 2.71l.474-2.212zm-6.013 14.44a4.35 4.35 0 0 0 3.136-1.436l1.202-5.267a4.6 4.6 0 0 0-3.438-1.436c-2.447 0-4.338 2.02-4.338 4.687a3.35 3.35 0 0 0 .975 2.467c.65.653 1.541 1.01 2.463.986zm16.154 7.905c1.073 0 1.72-.258 2.107-.818l.43-.685-3.437-20.842h7.948l1.288 11.86 6.66-11.86h8.384l-14.225 23.332c-2.71 4.472-5.415 5.846-9.576 5.846-1.423.022-2.841-.167-4.209-.56l2.447-6.574c.706.223 1.444.325 2.183.301z"/></svg>